<?xml version="1.0" encoding="utf-8"?>
<!-- Generator: Adobe Illustrator 23.0.3, SVG Export Plug-In . SVG Version: 6.00 Build 0)  -->
<svg version="1.1" id="Layer_1" xmlns="http://www.w3.org/2000/svg" xmlns:xlink="http://www.w3.org/1999/xlink" x="0px" y="0px"
	 viewBox="0 0 59.9 24" style="enable-background:new 0 0 59.9 24;" xml:space="preserve">
<path id="Fill-1" style="fill-rule:evenodd;clip-rule:evenodd;fill:#F58423;" d="M19,18.2v-2.8c-1.3,0.1-2.6,0.6-3.6,1.3
	C16.3,17.5,17.6,18,19,18.2L19,18.2z M19,13.8v-1.4h-6c0.1,1.2,0.6,2.2,1.3,3.1C15.6,14.6,17.2,13.9,19,13.8L19,13.8z M19,10.9V9.5
	c-1.8-0.1-3.4-0.8-4.7-1.7c-0.7,0.9-1.1,2-1.3,3.1H19z M19,7.9V5.1c-1.4,0.2-2.6,0.7-3.6,1.5C16.4,7.3,17.6,7.8,19,7.9L19,7.9z
	 M20.6,5.1v2.8c1.3-0.1,2.6-0.6,3.6-1.3C23.2,5.8,21.9,5.3,20.6,5.1L20.6,5.1z M20.6,9.5v1.4h6c-0.1-1.2-0.6-2.2-1.3-3.1
	C24,8.7,22.3,9.3,20.6,9.5L20.6,9.5z M20.6,12.4v1.4c1.8,0.1,3.4,0.8,4.7,1.7c0.7-0.9,1.1-2,1.3-3.1H20.6z M20.6,15.3v2.8
	c1.4-0.2,2.6-0.7,3.6-1.5C23.2,15.9,21.9,15.5,20.6,15.3L20.6,15.3z M11.3,11.6c0-4.5,3.8-8.1,8.5-8.1s8.5,3.6,8.5,8.1
	c0,4.5-3.8,8.1-8.5,8.1S11.3,16.1,11.3,11.6L11.3,11.6z"/>
<g id="Group-5">
	<g id="Clip-4">
	</g>
	<defs>
		<filter id="Adobe_OpacityMaskFilter" filterUnits="userSpaceOnUse" x="0" y="0" width="59.9" height="24">
			<feColorMatrix  type="matrix" values="1 0 0 0 0  0 1 0 0 0  0 0 1 0 0  0 0 0 1 0"/>
		</filter>
	</defs>
	<mask maskUnits="userSpaceOnUse" x="0" y="0" width="59.9" height="24" id="mask-2_1_">
		<g style="filter:url(#Adobe_OpacityMaskFilter);">
			<polygon id="path-1_1_" style="fill-rule:evenodd;clip-rule:evenodd;fill:#FFFFFF;" points="0,0 59.9,0 59.9,24 0,24 			"/>
		</g>
	</mask>
	<path id="Fill-3" style="mask:url(#mask-2_1_);fill-rule:evenodd;clip-rule:evenodd;fill:#1858A8;" d="M3.3,0h22.5l0,2.1H8.6
		c-1.2,0-2.1,0.9-2.1,2v15.8c0,1.1,0.9,2,2.1,2h17.1l0,2.1L3.3,24C1.5,24,0,22.6,0,20.9V3.1C0,1.4,1.5,0,3.3,0L3.3,0z M38.7,21.8
		L38.7,21.8c-1.2,0-2.2-0.9-2.2-2V4.1c0-1.1,0.9-2,2.1-2h0.1c1.2,0,2.1,0.9,2.1,2v15.8C40.8,20.9,39.9,21.8,38.7,21.8L38.7,21.8z
		 M49.2,2.1c-1.2,0-2.1,0.9-2.1,2v15.8c0,1.1,0.9,2,2.1,2h0.5c2.2,0,4-2,4-4.4s-1.8-4.4-4-4.4h-0.5v-2.2h0.5c2.2,0,4-2,4-4.4
		s-1.8-4.4-4-4.4H49.2z M28,24v-2.1c1.2,0,2.2-0.9,2.2-2V4.1c0-1.1-0.9-2-2.1-2V0h24.7C56.2,0,59,2.7,59,6c0,2.3-1.4,4.4-3.4,5.4
		c2.5,0.9,4.3,3.3,4.3,6.1c0,3.6-3,6.5-6.6,6.5H28z"/>
</g>
</svg>
